<svg xmlns="http://www.w3.org/2000/svg" xmlns:xlink="http://www.w3.org/1999/xlink" width="1310" zoomAndPan="magnify" viewBox="0 0 982.5 181.5" height="242" preserveAspectRatio="xMidYMid meet" version="1.0"><defs><g/><clipPath id="8b66980e42"><path d="M 15 0 L 980.902344 0 L 980.902344 181 L 15 181 Z M 15 0 " clip-rule="nonzero"/></clipPath><clipPath id="91044075fb"><rect x="0" width="966" y="0" height="181"/></clipPath></defs><g clip-path="url(#8b66980e42)"><g transform="matrix(1, 0, 0, 1, 15, 0)"><g clip-path="url(#91044075fb)"><g fill="#009688" fill-opacity="1"><g transform="translate(2.342825, 155.444247)"><g><path d="M 62.375 0 L 36.515625 0 L 36.515625 -100.390625 L 3.421875 -100.390625 L 3.421875 -121.90625 L 95.46875 -121.90625 L 95.46875 -100.390625 L 62.375 -100.390625 Z M 62.375 0 "/></g></g></g><g fill="#009688" fill-opacity="1"><g transform="translate(101.21954, 155.444247)"><g><path d="M 89.96875 0 L 81.125 -29.015625 L 36.6875 -29.015625 L 27.84375 0 L 0 0 L 43.03125 -122.40625 L 74.625 -122.40625 L 117.8125 0 Z M 74.953125 -50.703125 C 66.785156 -76.992188 62.1875 -91.859375 61.15625 -95.296875 C 60.132812 -98.742188 59.398438 -101.472656 58.953125 -103.484375 C 57.117188 -96.359375 51.863281 -78.765625 43.1875 -50.703125 Z M 74.953125 -50.703125 "/></g></g></g><g fill="#009688" fill-opacity="1"><g transform="translate(219.021223, 155.444247)"><g><path d="M 67.125 -102.140625 C 57.394531 -102.140625 49.859375 -98.484375 44.515625 -91.171875 C 39.179688 -83.867188 36.515625 -73.6875 36.515625 -60.625 C 36.515625 -33.4375 46.71875 -19.84375 67.125 -19.84375 C 75.6875 -19.84375 86.050781 -21.984375 98.21875 -26.265625 L 98.21875 -4.59375 C 88.21875 -0.414062 77.046875 1.671875 64.703125 1.671875 C 46.972656 1.671875 33.410156 -3.703125 24.015625 -14.453125 C 14.617188 -25.210938 9.921875 -40.65625 9.921875 -60.78125 C 9.921875 -73.457031 12.226562 -84.5625 16.84375 -94.09375 C 21.457031 -103.625 28.085938 -110.929688 36.734375 -116.015625 C 45.378906 -121.109375 55.507812 -123.65625 67.125 -123.65625 C 78.957031 -123.65625 90.851562 -120.789062 102.8125 -115.0625 L 94.46875 -94.046875 C 89.914062 -96.222656 85.332031 -98.113281 80.71875 -99.71875 C 76.101562 -101.332031 71.570312 -102.140625 67.125 -102.140625 Z M 67.125 -102.140625 "/></g></g></g><g fill="#009688" fill-opacity="1"><g transform="translate(327.818958, 155.444247)"><g><path d="M 89.96875 0 L 81.125 -29.015625 L 36.6875 -29.015625 L 27.84375 0 L 0 0 L 43.03125 -122.40625 L 74.625 -122.40625 L 117.8125 0 Z M 74.953125 -50.703125 C 66.785156 -76.992188 62.1875 -91.859375 61.15625 -95.296875 C 60.132812 -98.742188 59.398438 -101.472656 58.953125 -103.484375 C 57.117188 -96.359375 51.863281 -78.765625 43.1875 -50.703125 Z M 74.953125 -50.703125 "/></g></g></g><g fill="#009688" fill-opacity="1"><g transform="translate(445.620641, 155.444247)"><g><path d="M 67.125 -102.140625 C 57.394531 -102.140625 49.859375 -98.484375 44.515625 -91.171875 C 39.179688 -83.867188 36.515625 -73.6875 36.515625 -60.625 C 36.515625 -33.4375 46.71875 -19.84375 67.125 -19.84375 C 75.6875 -19.84375 86.050781 -21.984375 98.21875 -26.265625 L 98.21875 -4.59375 C 88.21875 -0.414062 77.046875 1.671875 64.703125 1.671875 C 46.972656 1.671875 33.410156 -3.703125 24.015625 -14.453125 C 14.617188 -25.210938 9.921875 -40.65625 9.921875 -60.78125 C 9.921875 -73.457031 12.226562 -84.5625 16.84375 -94.09375 C 21.457031 -103.625 28.085938 -110.929688 36.734375 -116.015625 C 45.378906 -121.109375 55.507812 -123.65625 67.125 -123.65625 C 78.957031 -123.65625 90.851562 -120.789062 102.8125 -115.0625 L 94.46875 -94.046875 C 89.914062 -96.222656 85.332031 -98.113281 80.71875 -99.71875 C 76.101562 -101.332031 71.570312 -102.140625 67.125 -102.140625 Z M 67.125 -102.140625 "/></g></g></g><g fill="#009688" fill-opacity="1"><g transform="translate(554.418375, 155.444247)"><g><path d="M 87.296875 -33.859375 C 87.296875 -22.847656 83.332031 -14.171875 75.40625 -7.828125 C 67.488281 -1.492188 56.472656 1.671875 42.359375 1.671875 C 29.347656 1.671875 17.84375 -0.773438 7.84375 -5.671875 L 7.84375 -29.6875 C 16.0625 -26.019531 23.019531 -23.429688 28.71875 -21.921875 C 34.414062 -20.421875 39.628906 -19.671875 44.359375 -19.671875 C 50.023438 -19.671875 54.375 -20.753906 57.40625 -22.921875 C 60.4375 -25.097656 61.953125 -28.328125 61.953125 -32.609375 C 61.953125 -34.992188 61.285156 -37.117188 59.953125 -38.984375 C 58.617188 -40.847656 56.660156 -42.640625 54.078125 -44.359375 C 51.492188 -46.078125 46.222656 -48.828125 38.265625 -52.609375 C 30.816406 -56.109375 25.226562 -59.472656 21.5 -62.703125 C 17.78125 -65.929688 14.804688 -69.679688 12.578125 -73.953125 C 10.359375 -78.234375 9.25 -83.238281 9.25 -88.96875 C 9.25 -99.75 12.90625 -108.222656 20.21875 -114.390625 C 27.53125 -120.566406 37.632812 -123.65625 50.53125 -123.65625 C 56.863281 -123.65625 62.90625 -122.90625 68.65625 -121.40625 C 74.414062 -119.90625 80.4375 -117.789062 86.71875 -115.0625 L 78.375 -94.96875 C 71.875 -97.632812 66.492188 -99.492188 62.234375 -100.546875 C 57.984375 -101.609375 53.804688 -102.140625 49.703125 -102.140625 C 44.804688 -102.140625 41.050781 -101 38.4375 -98.71875 C 35.820312 -96.445312 34.515625 -93.472656 34.515625 -89.796875 C 34.515625 -87.523438 35.039062 -85.539062 36.09375 -83.84375 C 37.15625 -82.144531 38.835938 -80.503906 41.140625 -78.921875 C 43.453125 -77.335938 48.914062 -74.488281 57.53125 -70.375 C 68.925781 -64.925781 76.734375 -59.460938 80.953125 -53.984375 C 85.179688 -48.515625 87.296875 -41.804688 87.296875 -33.859375 Z M 87.296875 -33.859375 "/></g></g></g><g fill="#009688" fill-opacity="1"><g transform="translate(648.459635, 155.444247)"><g><path d="M 5.09375 -35.359375 L 5.09375 -56.203125 L 49.859375 -56.203125 L 49.859375 -35.359375 Z M 5.09375 -35.359375 "/></g></g></g><g fill="#009688" fill-opacity="1"><g transform="translate(703.400407, 155.444247)"><g><path d="M 123.484375 0 L 90.640625 0 L 37.609375 -92.21875 L 36.859375 -92.21875 C 37.910156 -75.9375 38.4375 -64.316406 38.4375 -57.359375 L 38.4375 0 L 15.34375 0 L 15.34375 -121.90625 L 47.9375 -121.90625 L 100.890625 -30.59375 L 101.46875 -30.59375 C 100.632812 -46.4375 100.21875 -57.640625 100.21875 -64.203125 L 100.21875 -121.90625 L 123.484375 -121.90625 Z M 123.484375 0 "/></g></g></g><g fill="#009688" fill-opacity="1"><g transform="translate(842.211308, 155.444247)"><g><path d="M 61.625 -68.453125 L 109.984375 -68.453125 L 109.984375 -5.25 C 102.140625 -2.695312 94.757812 -0.90625 87.84375 0.125 C 80.925781 1.15625 73.851562 1.671875 66.625 1.671875 C 48.21875 1.671875 34.164062 -3.734375 24.46875 -14.546875 C 14.769531 -25.359375 9.921875 -40.882812 9.921875 -61.125 C 9.921875 -80.800781 15.546875 -96.140625 26.796875 -107.140625 C 38.054688 -118.148438 53.664062 -123.65625 73.625 -123.65625 C 86.132812 -123.65625 98.195312 -121.15625 109.8125 -116.15625 L 101.21875 -95.46875 C 92.332031 -99.914062 83.078125 -102.140625 73.453125 -102.140625 C 62.285156 -102.140625 53.335938 -98.382812 46.609375 -90.875 C 39.878906 -83.375 36.515625 -73.289062 36.515625 -60.625 C 36.515625 -47.394531 39.222656 -37.289062 44.640625 -30.3125 C 50.066406 -23.332031 57.953125 -19.84375 68.296875 -19.84375 C 73.679688 -19.84375 79.15625 -20.398438 84.71875 -21.515625 L 84.71875 -46.9375 L 61.625 -46.9375 Z M 61.625 -68.453125 "/></g></g></g></g></g></g></svg>