<svg xmlns="http://www.w3.org/2000/svg" xmlns:xlink="http://www.w3.org/1999/xlink" width="1310" zoomAndPan="magnify" viewBox="0 0 982.5 149.999998" height="200" preserveAspectRatio="xMidYMid meet" version="1.0"><defs><g/></defs><g fill="#009688" fill-opacity="1"><g transform="translate(9.663051, 127.098482)"><g><path d="M 49.5625 0 L 29.015625 0 L 29.015625 -79.78125 L 2.71875 -79.78125 L 2.71875 -96.875 L 75.875 -96.875 L 75.875 -79.78125 L 49.5625 -79.78125 Z M 49.5625 0 "/></g></g></g><g fill="#009688" fill-opacity="1"><g transform="translate(88.249664, 127.098482)"><g><path d="M 71.5 0 L 64.46875 -23.0625 L 29.15625 -23.0625 L 22.125 0 L 0 0 L 34.1875 -97.265625 L 59.296875 -97.265625 L 93.625 0 Z M 59.5625 -40.28125 C 53.070312 -61.175781 49.414062 -72.992188 48.59375 -75.734375 C 47.78125 -78.472656 47.195312 -80.640625 46.84375 -82.234375 C 45.382812 -76.578125 41.210938 -62.59375 34.328125 -40.28125 Z M 59.5625 -40.28125 "/></g></g></g><g fill="#009688" fill-opacity="1"><g transform="translate(181.877729, 127.098482)"><g><path d="M 53.34375 -81.171875 C 45.613281 -81.171875 39.625 -78.265625 35.375 -72.453125 C 31.132812 -66.648438 29.015625 -58.554688 29.015625 -48.171875 C 29.015625 -26.566406 37.125 -15.765625 53.34375 -15.765625 C 60.144531 -15.765625 68.382812 -17.46875 78.0625 -20.875 L 78.0625 -3.640625 C 70.101562 -0.328125 61.222656 1.328125 51.421875 1.328125 C 37.328125 1.328125 26.546875 -2.941406 19.078125 -11.484375 C 11.617188 -20.035156 7.890625 -32.304688 7.890625 -48.296875 C 7.890625 -58.367188 9.722656 -67.191406 13.390625 -74.765625 C 17.054688 -82.347656 22.320312 -88.160156 29.1875 -92.203125 C 36.050781 -96.242188 44.101562 -98.265625 53.34375 -98.265625 C 62.75 -98.265625 72.203125 -95.988281 81.703125 -91.4375 L 75.078125 -74.75 C 71.453125 -76.46875 67.804688 -77.96875 64.140625 -79.25 C 60.472656 -80.53125 56.875 -81.171875 53.34375 -81.171875 Z M 53.34375 -81.171875 "/></g></g></g><g fill="#009688" fill-opacity="1"><g transform="translate(268.349508, 127.098482)"><g><path d="M 71.5 0 L 64.46875 -23.0625 L 29.15625 -23.0625 L 22.125 0 L 0 0 L 34.1875 -97.265625 L 59.296875 -97.265625 L 93.625 0 Z M 59.5625 -40.28125 C 53.070312 -61.175781 49.414062 -72.992188 48.59375 -75.734375 C 47.78125 -78.472656 47.195312 -80.640625 46.84375 -82.234375 C 45.382812 -76.578125 41.210938 -62.59375 34.328125 -40.28125 Z M 59.5625 -40.28125 "/></g></g></g><g fill="#009688" fill-opacity="1"><g transform="translate(361.977561, 127.098482)"><g><path d="M 53.34375 -81.171875 C 45.613281 -81.171875 39.625 -78.265625 35.375 -72.453125 C 31.132812 -66.648438 29.015625 -58.554688 29.015625 -48.171875 C 29.015625 -26.566406 37.125 -15.765625 53.34375 -15.765625 C 60.144531 -15.765625 68.382812 -17.46875 78.0625 -20.875 L 78.0625 -3.640625 C 70.101562 -0.328125 61.222656 1.328125 51.421875 1.328125 C 37.328125 1.328125 26.546875 -2.941406 19.078125 -11.484375 C 11.617188 -20.035156 7.890625 -32.304688 7.890625 -48.296875 C 7.890625 -58.367188 9.722656 -67.191406 13.390625 -74.765625 C 17.054688 -82.347656 22.320312 -88.160156 29.1875 -92.203125 C 36.050781 -96.242188 44.101562 -98.265625 53.34375 -98.265625 C 62.75 -98.265625 72.203125 -95.988281 81.703125 -91.4375 L 75.078125 -74.75 C 71.453125 -76.46875 67.804688 -77.96875 64.140625 -79.25 C 60.472656 -80.53125 56.875 -81.171875 53.34375 -81.171875 Z M 53.34375 -81.171875 "/></g></g></g><g fill="#009688" fill-opacity="1"><g transform="translate(448.449375, 127.098482)"><g><path d="M 69.375 -26.90625 C 69.375 -18.15625 66.222656 -11.257812 59.921875 -6.21875 C 53.628906 -1.1875 44.875 1.328125 33.65625 1.328125 C 23.320312 1.328125 14.179688 -0.613281 6.234375 -4.5 L 6.234375 -23.59375 C 12.765625 -20.675781 18.296875 -18.617188 22.828125 -17.421875 C 27.359375 -16.234375 31.5 -15.640625 35.25 -15.640625 C 39.757812 -15.640625 43.21875 -16.5 45.625 -18.21875 C 48.03125 -19.945312 49.234375 -22.507812 49.234375 -25.90625 C 49.234375 -27.800781 48.703125 -29.488281 47.640625 -30.96875 C 46.578125 -32.457031 45.019531 -33.882812 42.96875 -35.25 C 40.914062 -36.625 36.726562 -38.8125 30.40625 -41.8125 C 24.488281 -44.59375 20.050781 -47.265625 17.09375 -49.828125 C 14.132812 -52.390625 11.769531 -55.367188 10 -58.765625 C 8.238281 -62.171875 7.359375 -66.148438 7.359375 -70.703125 C 7.359375 -79.273438 10.257812 -86.007812 16.0625 -90.90625 C 21.875 -95.8125 29.90625 -98.265625 40.15625 -98.265625 C 45.1875 -98.265625 49.988281 -97.664062 54.5625 -96.46875 C 59.132812 -95.28125 63.914062 -93.601562 68.90625 -91.4375 L 62.28125 -75.46875 C 57.113281 -77.59375 52.835938 -79.070312 49.453125 -79.90625 C 46.078125 -80.75 42.753906 -81.171875 39.484375 -81.171875 C 35.597656 -81.171875 32.617188 -80.265625 30.546875 -78.453125 C 28.472656 -76.640625 27.4375 -74.273438 27.4375 -71.359375 C 27.4375 -69.546875 27.851562 -67.96875 28.6875 -66.625 C 29.53125 -65.28125 30.867188 -63.976562 32.703125 -62.71875 C 34.535156 -61.457031 38.875 -59.191406 45.71875 -55.921875 C 54.769531 -51.597656 60.972656 -47.257812 64.328125 -42.90625 C 67.691406 -38.550781 69.375 -33.21875 69.375 -26.90625 Z M 69.375 -26.90625 "/></g></g></g><g fill="#009688" fill-opacity="1"><g transform="translate(523.192798, 127.098482)"><g><path d="M 4.046875 -28.09375 L 4.046875 -44.65625 L 39.625 -44.65625 L 39.625 -28.09375 Z M 4.046875 -28.09375 "/></g></g></g><g fill="#009688" fill-opacity="1"><g transform="translate(566.859356, 127.098482)"><g><path d="M 98.140625 0 L 72.03125 0 L 29.890625 -73.28125 L 29.28125 -73.28125 C 30.125 -60.34375 30.546875 -51.113281 30.546875 -45.59375 L 30.546875 0 L 12.1875 0 L 12.1875 -96.875 L 38.09375 -96.875 L 80.171875 -24.3125 L 80.640625 -24.3125 C 79.972656 -36.90625 79.640625 -45.804688 79.640625 -51.015625 L 79.640625 -96.875 L 98.140625 -96.875 Z M 98.140625 0 "/></g></g></g><g fill="#009688" fill-opacity="1"><g transform="translate(677.185408, 127.098482)"><g><path d="M 48.96875 -54.40625 L 87.40625 -54.40625 L 87.40625 -4.171875 C 81.175781 -2.140625 75.3125 -0.71875 69.8125 0.09375 C 64.3125 0.914062 58.6875 1.328125 52.9375 1.328125 C 38.320312 1.328125 27.160156 -2.96875 19.453125 -11.5625 C 11.742188 -20.15625 7.890625 -32.488281 7.890625 -48.5625 C 7.890625 -64.207031 12.359375 -76.398438 21.296875 -85.140625 C 30.242188 -93.890625 42.648438 -98.265625 58.515625 -98.265625 C 68.453125 -98.265625 78.035156 -96.273438 87.265625 -92.296875 L 80.4375 -75.875 C 73.375 -79.40625 66.019531 -81.171875 58.375 -81.171875 C 49.5 -81.171875 42.382812 -78.1875 37.03125 -72.21875 C 31.6875 -66.257812 29.015625 -58.242188 29.015625 -48.171875 C 29.015625 -37.660156 31.164062 -29.628906 35.46875 -24.078125 C 39.78125 -18.535156 46.046875 -15.765625 54.265625 -15.765625 C 58.554688 -15.765625 62.910156 -16.207031 67.328125 -17.09375 L 67.328125 -37.3125 L 48.96875 -37.3125 Z M 48.96875 -54.40625 "/></g></g></g><g fill="#009688" fill-opacity="1"><g transform="translate(775.451817, 127.098482)"><g><path d="M 4.046875 -28.09375 L 4.046875 -44.65625 L 39.625 -44.65625 L 39.625 -28.09375 Z M 4.046875 -28.09375 "/></g></g></g><g fill="#009688" fill-opacity="1"><g transform="translate(819.11842, 127.098482)"><g><path d="M 91.046875 -96.875 L 91.046875 -34.1875 C 91.046875 -27.03125 89.441406 -20.753906 86.234375 -15.359375 C 83.035156 -9.972656 78.410156 -5.84375 72.359375 -2.96875 C 66.304688 -0.101562 59.148438 1.328125 50.890625 1.328125 C 38.429688 1.328125 28.753906 -1.863281 21.859375 -8.25 C 14.972656 -14.632812 11.53125 -23.367188 11.53125 -34.453125 L 11.53125 -96.875 L 32 -96.875 L 32 -37.5625 C 32 -30.101562 33.5 -24.628906 36.5 -21.140625 C 39.507812 -17.648438 44.484375 -15.90625 51.421875 -15.90625 C 58.128906 -15.90625 62.992188 -17.660156 66.015625 -21.171875 C 69.046875 -24.679688 70.5625 -30.191406 70.5625 -37.703125 L 70.5625 -96.875 Z M 91.046875 -96.875 "/></g></g></g><g fill="#009688" fill-opacity="1"><g transform="translate(921.691795, 127.098482)"><g><path d="M 48.4375 0 L 4.375 0 L 4.375 -11.65625 L 16.171875 -17.09375 L 16.171875 -79.78125 L 4.375 -85.21875 L 4.375 -96.875 L 48.4375 -96.875 L 48.4375 -85.21875 L 36.640625 -79.78125 L 36.640625 -17.09375 L 48.4375 -11.65625 Z M 48.4375 0 "/></g></g></g></svg>